<svg width="22" height="24" viewBox="0 0 22 24" fill="none" xmlns="http://www.w3.org/2000/svg">
<path d="M18.5 3H17V0.75C17 0.375 16.625 0 16.25 0C15.8281 0 15.5 0.375 15.5 0.75V3H6.5V0.75C6.5 0.375 6.125 0 5.75 0C5.32812 0 5 0.375 5 0.75V3H3.5C1.8125 3 0.5 4.35938 0.5 6V21C0.5 22.6875 1.8125 24 3.5 24H18.5C20.1406 24 21.5 22.6875 21.5 21V6C21.5 4.35938 20.1406 3 18.5 3ZM20 21C20 21.8438 19.2969 22.5 18.5 22.5H3.5C2.65625 22.5 2 21.8438 2 21V9H20V21ZM20 7.5H2V6C2 5.20312 2.65625 4.5 3.5 4.5H18.5C19.2969 4.5 20 5.20312 20 6V7.5ZM5 18H9.5C10.2969 18 11 17.3438 11 16.5V12C11 11.2031 10.2969 10.5 9.5 10.5H5C4.15625 10.5 3.5 11.2031 3.5 12V16.5C3.5 17.3438 4.15625 18 5 18ZM5 12H9.5V16.5H5V12Z" fill="black"/>
</svg>
