<svg width="18" height="24" viewBox="0 0 18 24" fill="none" xmlns="http://www.w3.org/2000/svg">
<path d="M8.29688 11.7656L6.23438 16.9219L5.20312 11.8594C5.10938 11.4844 4.73438 11.2031 4.3125 11.2969C3.9375 11.3438 3.65625 11.7656 3.75 12.1875L5.25 19.6875C5.29688 20.0156 5.57812 20.25 5.90625 20.25C6.23438 20.2969 6.5625 20.1094 6.65625 19.7812L9 14.0625L11.2969 19.7812C11.3906 20.1094 11.6719 20.25 12 20.25C12 20.25 12 20.25 12.0469 20.25C12.375 20.25 12.6562 20.0156 12.7031 19.6875L14.2031 12.1875C14.2969 11.7656 14.0156 11.3906 13.6406 11.2969C13.2188 11.2031 12.8438 11.4844 12.75 11.8594L11.7188 16.9219L9.65625 11.7656C9.42188 11.1562 8.53125 11.1562 8.29688 11.7656ZM17.1094 5.90625L12.0938 0.890625C11.5312 0.328125 10.7812 0 9.98438 0H3C1.3125 0 0 1.35938 0 3V21C0 22.6875 1.3125 24 3 24H15C16.6406 24 18 22.6875 18 21V8.01562C18 7.21875 17.6719 6.46875 17.1094 5.90625ZM10.5 1.64062C10.6875 1.6875 10.875 1.78125 11.0625 1.96875L16.0312 6.9375C16.2188 7.125 16.3125 7.3125 16.3594 7.5H11.25C10.8281 7.5 10.5 7.17188 10.5 6.75V1.64062ZM16.5 21C16.5 21.8438 15.7969 22.5 15 22.5H3C2.15625 22.5 1.5 21.8438 1.5 21V3C1.5 2.20312 2.15625 1.5 3 1.5H9V6.75C9 8.01562 9.98438 9 11.25 9H16.5V21Z" fill="#4299E1"/>
</svg>
