<svg width="20" height="21" viewBox="0 0 20 21" fill="none" xmlns="http://www.w3.org/2000/svg">
<path d="M17.5 12.375H15.3906L13.5156 14.25H17.5C17.8125 14.25 18.125 14.5625 18.125 14.875V18C18.125 18.3516 17.8125 18.625 17.5 18.625H2.5C2.14844 18.625 1.875 18.3516 1.875 18V14.875C1.875 14.5625 2.14844 14.25 2.5 14.25H6.44531L4.57031 12.375H2.5C1.09375 12.375 0 13.5078 0 14.875V18C0 19.4062 1.09375 20.5 2.5 20.5H17.5C18.8672 20.5 20 19.4062 20 18V14.875C20 13.5078 18.8672 12.375 17.5 12.375ZM16.875 16.4375C16.875 15.9297 16.4453 15.5 15.9375 15.5C15.3906 15.5 15 15.9297 15 16.4375C15 16.9844 15.3906 17.375 15.9375 17.375C16.4453 17.375 16.875 16.9844 16.875 16.4375ZM9.33594 14.9141C9.49219 15.1094 9.72656 15.1875 10 15.1875C10.2344 15.1875 10.4688 15.1094 10.625 14.9141L15.9375 9.60156C16.3281 9.25 16.3281 8.66406 15.9375 8.3125C15.5859 7.92188 15 7.92188 14.6484 8.3125L10.9375 12.0234V1.4375C10.9375 0.929688 10.5078 0.5 10 0.5C9.45312 0.5 9.0625 0.929688 9.0625 1.4375V12.0234L5.3125 8.27344C4.92188 7.92188 4.33594 7.92188 3.98438 8.27344C3.59375 8.66406 3.59375 9.25 3.98438 9.60156L9.33594 14.9141Z" fill="#615EF0"/>
</svg>
