<svg width="18" height="24" viewBox="0 0 18 24" fill="none" xmlns="http://www.w3.org/2000/svg">
<path d="M17.1094 5.90625L12.0938 0.890625C11.5312 0.328125 10.7812 0 9.98438 0H3C1.3125 0 0 1.35938 0 3V21C0 22.6875 1.3125 24 3 24H15C16.6406 24 18 22.6875 18 21V8.01562C18 7.21875 17.6719 6.46875 17.1094 5.90625ZM10.5 1.64062C10.6875 1.6875 10.875 1.78125 11.0625 1.96875L16.0312 6.9375C16.2188 7.125 16.3125 7.3125 16.3594 7.5H11.25C10.8281 7.5 10.5 7.17188 10.5 6.75V1.64062ZM16.5 21C16.5 21.8438 15.7969 22.5 15 22.5H3C2.15625 22.5 1.5 21.8438 1.5 21V3C1.5 2.20312 2.15625 1.5 3 1.5H9V6.75C9 8.01562 9.98438 9 11.25 9H16.5V21ZM9.46875 13.5938C9.9375 12.0938 9.98438 10.9219 9.98438 10.6875C9.98438 9.75 9.23438 9 8.29688 9C7.40625 9 6.65625 9.75 6.65625 10.6875C6.65625 10.6875 6.65625 12.0469 7.3125 13.6875C6.98438 14.5781 6.5625 15.5156 6.09375 16.4062C5.01562 16.9219 4.125 17.4844 3.46875 18.1406C3.14062 18.4688 3 18.8906 3 19.3594C3 20.2969 3.70312 21 4.64062 21C5.15625 21 5.67188 20.7656 6 20.3438C6.28125 19.9688 6.84375 19.125 7.5 18C8.29688 17.6719 9.1875 17.4375 10.2188 17.2031C10.7812 17.5781 12.1875 18.4219 13.1719 18.4219C14.2031 18.4219 15 17.625 15 16.6406C15 15.6562 14.1562 14.8125 13.125 14.8125C12.375 14.8125 11.25 15 10.6875 15.0938C10.2188 14.6719 9.79688 14.1562 9.46875 13.5938ZM4.92188 19.5469C4.73438 19.7812 4.3125 19.6875 4.3125 19.3125C4.3125 19.2188 4.35938 19.1719 4.40625 19.125C4.82812 18.6562 5.39062 18.2812 5.95312 17.9531C5.48438 18.75 5.10938 19.2656 4.92188 19.5469ZM8.29688 10.3594C8.48438 10.3594 8.625 10.5 8.625 10.6875C8.625 11.3906 8.4375 12.3281 8.34375 12.7031C7.96875 11.625 7.96875 10.7344 7.96875 10.6875C7.96875 10.5 8.10938 10.3594 8.29688 10.3594ZM7.5 16.5469C7.82812 15.9375 8.15625 15.1875 8.48438 14.4375C8.76562 14.9531 9.1875 15.4688 9.70312 15.9375C9 16.125 8.25 16.3125 7.5 16.5469ZM13.125 16.1719C13.4062 16.1719 13.6406 16.3594 13.6406 16.6875C13.6406 16.9219 13.4531 17.1094 13.1719 17.1094C12.75 17.1094 11.7656 16.6406 11.2969 16.3594C11.3438 16.3594 12.5625 16.1719 13.125 16.1719Z" fill="#F56565"/>
</svg>
