<svg width="27" height="24" viewBox="0 0 27 24" fill="none" xmlns="http://www.w3.org/2000/svg">
<path d="M25.7031 13.5L16.4219 13.5469C15.7188 13.5469 15.3906 14.3438 15.8594 14.8125L22 20.9531C22.2344 21.1406 22.6562 21.2812 23.0312 20.9531C24.8594 19.2656 26.0781 16.9688 26.4531 14.3438C26.5469 13.9219 26.1719 13.5 25.7031 13.5ZM22.5156 19.3594L18.2031 15H24.8125C24.4375 16.6406 23.6406 18.0938 22.5156 19.3594ZM11.5 13.5V2.39062C11.5 1.96875 11.125 1.64062 10.75 1.64062C10.7031 1.64062 10.6562 1.64062 10.6562 1.64062C5.07812 2.4375 0.765625 7.26562 1.04688 13.1719C1.1875 19.125 6.29688 24 12.25 24C12.2969 24 12.2969 24 12.3438 24C14.7344 24 16.8906 23.25 18.7188 21.9375C19.0938 21.7031 19.0938 21.1406 18.7656 20.8125L11.5 13.5ZM12.3438 22.5C6.90625 22.5 2.64062 18.0469 2.5 13.125C2.3125 8.4375 5.5 4.35938 10 3.28125V13.5C10 13.9219 10.1406 14.2969 10.4219 14.5781L17.0781 21.2344C15.625 22.0781 14.0312 22.5 12.3438 22.5ZM24.9531 10.5C24.5312 4.875 20.0781 0.46875 14.4531 0C13.9844 0 13.7031 0.421875 13.7031 0.796875V10.5C13.7031 10.9219 14.0312 11.25 14.4531 11.25H24.1562C24.625 11.25 25 10.9219 24.9531 10.5ZM15.2031 9.75V1.59375C19.4219 2.25 22.75 5.57812 23.4062 9.75H15.2031Z" fill="black"/>
</svg>
