<svg width="18" height="24" viewBox="0 0 18 24" fill="none" xmlns="http://www.w3.org/2000/svg">
<path d="M8.90625 13.4062L7.64062 15.3281C7.07812 14.625 5.90625 14.6719 5.39062 15.4219L3.1875 18.7969C2.90625 19.2656 2.90625 19.8281 3.14062 20.25C3.375 20.7188 3.84375 21 4.35938 21H13.5469C14.0625 21 14.5312 20.7188 14.7656 20.25C15 19.7812 15 19.2656 14.7188 18.7969L11.2031 13.4062C10.7344 12.6094 9.42188 12.6094 8.90625 13.4062ZM13.4062 19.5H4.45312L6.5625 16.4062L7.03125 17.1094C7.3125 17.5312 8.01562 17.5312 8.29688 17.1094L10.0781 14.3438L13.4062 19.5ZM4.5 13.125C5.10938 13.125 5.625 12.6562 5.625 12C5.625 11.3906 5.10938 10.875 4.5 10.875C3.84375 10.875 3.375 11.3906 3.375 12C3.375 12.6562 3.84375 13.125 4.5 13.125ZM17.1094 5.90625L12.0938 0.890625C11.5312 0.328125 10.7812 0 9.98438 0H3C1.3125 0 0 1.35938 0 3V21C0 22.6875 1.3125 24 3 24H15C16.6406 24 18 22.6875 18 21V8.01562C18 7.21875 17.6719 6.46875 17.1094 5.90625ZM10.5 1.64062C10.6875 1.6875 10.875 1.78125 11.0625 1.96875L16.0312 6.9375C16.2188 7.125 16.3125 7.3125 16.3594 7.5H11.25C10.8281 7.5 10.5 7.17188 10.5 6.75V1.64062ZM16.5 21C16.5 21.8438 15.7969 22.5 15 22.5H3C2.15625 22.5 1.5 21.8438 1.5 21V3C1.5 2.20312 2.15625 1.5 3 1.5H9V6.75C9 8.01562 9.98438 9 11.25 9H16.5V21Z" fill="#48BB78"/>
</svg>
