<svg width="18" height="24" viewBox="0 0 18 24" fill="none" xmlns="http://www.w3.org/2000/svg">
<path d="M17.1094 5.90625L12.0938 0.890625C11.5312 0.328125 10.7812 0 9.98438 0H3C1.3125 0 0 1.35938 0 3V21C0 22.6875 1.3125 24 3 24H15C16.6406 24 18 22.6875 18 21V8.01562C18 7.21875 17.6719 6.46875 17.1094 5.90625ZM10.5 1.64062C10.6875 1.6875 10.875 1.78125 11.0625 1.96875L16.0312 6.9375C16.2188 7.125 16.3125 7.3125 16.3594 7.5H11.25C10.8281 7.5 10.5 7.17188 10.5 6.75V1.64062ZM16.5 21C16.5 21.8438 15.7969 22.5 15 22.5H3C2.15625 22.5 1.5 21.8438 1.5 21V3C1.5 2.20312 2.15625 1.5 3 1.5H9V6.75C9 8.01562 9.98438 9 11.25 9H16.5V21ZM9 14.4844L6.98438 11.5781C6.75 11.25 6.28125 11.1562 5.90625 11.3906C5.57812 11.625 5.48438 12.0938 5.71875 12.4688L8.0625 15.75L5.71875 19.0781C5.48438 19.4531 5.57812 19.9219 5.90625 20.1562C6.04688 20.25 6.1875 20.25 6.32812 20.25C6.5625 20.25 6.79688 20.1562 6.9375 19.9688L9 17.0625L10.9688 19.9688C11.1094 20.1562 11.3438 20.25 11.625 20.25C11.7656 20.25 11.9062 20.25 12.0469 20.1562C12.375 19.9219 12.4688 19.4531 12.2344 19.0781L9.89062 15.75L12.2344 12.4688C12.4688 12.0938 12.375 11.625 12.0469 11.3906C11.6719 11.1562 11.2031 11.25 10.9688 11.5781L9 14.4844Z" fill="#9F7AEA"/>
</svg>
